# xmcd CD database file
#
# Track frame offsets:
#	150
#	12389
#	19218
#	26933
#	37134
#	57833
#	70173
#	77294
#	89413
#	103667
#	110438
#	128201
#	146682
#	163735
#	193325
#	210114
#	222209
#	236739
#	247282
#	259202
#	271110
#	288013
#	300706
#	306973
#
# Disc length: 4271 seconds
#
# Revision: 0
# Processed by: cddbd v1.5.1PL2 Copyright (c) Steve Scherf et al.
# Submitted via: CDex 1.51
#
DISCID=6110ad18
DTITLE=Rob Levit - Touch The Spirit
DYEAR=2006
DGENRE=New Age
TTITLE0=Touch the Spirit
TTITLE1=Sunken Cathedral
TTITLE2=Radiance (for Keith Jarrett)
TTITLE3=The Traveler
TTITLE4=The Gift of Lilies
TTITLE5=Disjunction Blues
TTITLE6=The Atonement
TTITLE7=The Journey West
TTITLE8=The Stranger
TTITLE9=Country-blue
TTITLE10=Through the Gap
TTITLE11=Drum Wisdom
TTITLE12=My Empress shall not Weep
TTITLE13=The Borderland
TTITLE14=The Bridge
TTITLE15=Song for Christopher
TTITLE16=Homecoming
TTITLE17=A Flash of Joy
TTITLE18=Naked Blues
TTITLE19=Forgotten Song
TTITLE20=The Ancient
TTITLE21=Child-like
TTITLE22=Branches
TTITLE23=The Last Step
EXTD=YEAR: 2006
EXTT0=
EXTT1=
EXTT2=
EXTT3=
EXTT4=
EXTT5=
EXTT6=
EXTT7=
EXTT8=
EXTT9=
EXTT10=
EXTT11=
EXTT12=
EXTT13=
EXTT14=
EXTT15=
EXTT16=
EXTT17=
EXTT18=
EXTT19=
EXTT20=
EXTT21=
EXTT22=
EXTT23=
PLAYORDER=
